STARTFONT 2.1
COMMENT 94.8.25 7-bit part (ASCII) taken from etl14-latin1.bdf
COMMENT         8-bit part (Thai) created by Manop Wongsaisuwan
COMMENT 97.01.11 modified by Mark Leisher <mleisher@crl.nmsu.edu>
COMMENT 97.01.14 modified by Sihattha Rasphone <sihattha@jaist.ac.jp>
COMMENT   - replaced 0xA1-0xFF with Lao glyphs.
COMMENT 97.06.19 CHARSET_REGISTRY field changed by K. Handa <handa@etl.go.jp>
COMMENT 
FONT -misc-fixed-medium-r-normal--14-140-72-72-m-70-MuleLao-1
SIZE 14 72 72
FONTBOUNDINGBOX 7 17 0 -3
STARTPROPERTIES 24
FOUNDRY "misc"
FAMILY_NAME "fixed"
WEIGHT_NAME "medium"
SLANT "r"
SETWIDTH_NAME "normal"
ADD_STYLE_NAME ""
PIXEL_SIZE 14
POINT_SIZE 140
RESOLUTION_X 72
RESOLUTION_Y 72
SPACING "m"
AVERAGE_WIDTH 70
CHARSET_REGISTRY "MuleLao"
CHARSET_ENCODING "1"
STRIKEOUT_ASCENT 14
STRIKEOUT_DESCENT 3
X_HEIGHT 7
FACE_NAME "Lao typewriter (14dots)"
COPYRIGHT "Public domain font. Share and enjoy."
FONT_ASCENT 14
FONT_DESCENT 3
DEFAULT_CHAR 32
_MULE_RELATIVE_COMPOSE 8
_MULE_DEFAULT_ASCENT 9
ENDPROPERTIES
CHARS 161
STARTCHAR C040
ENCODING 32
SWIDTH 500 0
DWIDTH 7 0
BBX 7 17 0 -3
BITMAP
00
00
00
00
00
00
00
00
00
00
00
00
00
00
00
00
00
ENDCHAR
STARTCHAR !
ENCODING 33
SWIDTH 500 0
DWIDTH 7 0
BBX 7 17 0 -3
BITMAP
00
00
00
00
00
10
10
10
10
10
10
00
38
10
00
00
00
ENDCHAR
STARTCHAR "
ENCODING 34
SWIDTH 500 0
DWIDTH 7 0
BBX 7 17 0 -3
BITMAP
00
00
00
00
6c
24
24
48
00
00
00
00
00
00
00
00
00
ENDCHAR
STARTCHAR #
ENCODING 35
SWIDTH 500 0
DWIDTH 7 0
BBX 7 17 0 -3
BITMAP
00
00
00
00
00
12
12
7e
24
24
24
7e
48
48
00
00
00
ENDCHAR
STARTCHAR $
ENCODING 36
SWIDTH 500 0
DWIDTH 7 0
BBX 7 17 0 -3
BITMAP
00
00
00
00
00
08
3c
4a
48
28
1c
4a
4a
3c
08
00
00
ENDCHAR
STARTCHAR %
ENCODING 37
SWIDTH 500 0
DWIDTH 7 0
BBX 7 17 0 -3
BITMAP
00
00
00
00
00
32
4a
4c
38
10
1c
32
52
4c
00
00
00
ENDCHAR
STARTCHAR &
ENCODING 38
SWIDTH 500 0
DWIDTH 7 0
BBX 7 17 0 -3
BITMAP
00
00
00
00
00
18
24
24
18
32
4a
44
4c
32
00
00
00
ENDCHAR
STARTCHAR '
ENCODING 39
SWIDTH 500 0
DWIDTH 7 0
BBX 7 17 0 -3
BITMAP
00
00
00
00
30
10
10
20
00
00
00
00
00
00
00
00
00
ENDCHAR
STARTCHAR (
ENCODING 40
SWIDTH 500 0
DWIDTH 7 0
BBX 7 17 0 -3
BITMAP
00
00
00
00
04
08
08
10
10
10
10
10
08
08
04
00
00
ENDCHAR
STARTCHAR )
ENCODING 41
SWIDTH 500 0
DWIDTH 7 0
BBX 7 17 0 -3
BITMAP
00
00
00
00
40
20
20
10
10
10
10
10
20
20
40
00
00
ENDCHAR
STARTCHAR *
ENCODING 42
SWIDTH 500 0
DWIDTH 7 0
BBX 7 17 0 -3
BITMAP
00
00
00
00
00
00
10
54
38
10
38
54
10
00
00
00
00
ENDCHAR
STARTCHAR +
ENCODING 43
SWIDTH 500 0
DWIDTH 7 0
BBX 7 17 0 -3
BITMAP
00
00
00
00
00
00
10
10
10
7c
10
10
10
00
00
00
00
ENDCHAR
STARTCHAR ,
ENCODING 44
SWIDTH 500 0
DWIDTH 7 0
BBX 7 17 0 -3
BITMAP
00
00
00
00
00
00
00
00
00
00
00
00
18
08
08
10
00
ENDCHAR
STARTCHAR -
ENCODING 45
SWIDTH 500 0
DWIDTH 7 0
BBX 7 17 0 -3
BITMAP
00
00
00
00
00
00
00
00
00
7c
00
00
00
00
00
00
00
ENDCHAR
STARTCHAR .
ENCODING 46
SWIDTH 500 0
DWIDTH 7 0
BBX 7 17 0 -3
BITMAP
00
00
00
00
00
00
00
00
00
00
00
00
18
18
00
00
00
ENDCHAR
STARTCHAR /
ENCODING 47
SWIDTH 500 0
DWIDTH 7 0
BBX 7 17 0 -3
BITMAP
00
00
00
00
00
04
04
08
08
10
20
20
40
40
00
00
00
ENDCHAR
STARTCHAR 0
ENCODING 48
SWIDTH 500 0
DWIDTH 7 0
BBX 7 17 0 -3
BITMAP
00
00
00
00
00
18
24
42
42
42
42
42
24
18
00
00
00
ENDCHAR
STARTCHAR 1
ENCODING 49
SWIDTH 500 0
DWIDTH 7 0
BBX 7 17 0 -3
BITMAP
00
00
00
00
00
10
30
50
10
10
10
10
10
7c
00
00
00
ENDCHAR
STARTCHAR 2
ENCODING 50
SWIDTH 500 0
DWIDTH 7 0
BBX 7 17 0 -3
BITMAP
00
00
00
00
00
3c
42
42
02
0c
10
20
40
7e
00
00
00
ENDCHAR
STARTCHAR 3
ENCODING 51
SWIDTH 500 0
DWIDTH 7 0
BBX 7 17 0 -3
BITMAP
00
00
00
00
00
3c
42
42
02
1c
02
42
42
3c
00
00
00
ENDCHAR
STARTCHAR 4
ENCODING 52
SWIDTH 500 0
DWIDTH 7 0
BBX 7 17 0 -3
BITMAP
00
00
00
00
00
04
0c
14
14
24
44
7e
04
04
00
00
00
ENDCHAR
STARTCHAR 5
ENCODING 53
SWIDTH 500 0
DWIDTH 7 0
BBX 7 17 0 -3
BITMAP
00
00
00
00
00
7e
40
40
7c
02
02
02
42
3c
00
00
00
ENDCHAR
STARTCHAR 6
ENCODING 54
SWIDTH 500 0
DWIDTH 7 0
BBX 7 17 0 -3
BITMAP
00
00
00
00
00
3c
42
40
40
7c
42
42
42
3c
00
00
00
ENDCHAR
STARTCHAR 7
ENCODING 55
SWIDTH 500 0
DWIDTH 7 0
BBX 7 17 0 -3
BITMAP
00
00
00
00
00
7e
02
04
04
08
08
10
10
10
00
00
00
ENDCHAR
STARTCHAR 8
ENCODING 56
SWIDTH 500 0
DWIDTH 7 0
BBX 7 17 0 -3
BITMAP
00
00
00
00
00
3c
42
42
42
3c
42
42
42
3c
00
00
00
ENDCHAR
STARTCHAR 9
ENCODING 57
SWIDTH 500 0
DWIDTH 7 0
BBX 7 17 0 -3
BITMAP
00
00
00
00
00
3c
42
42
42
3e
02
42
42
3c
00
00
00
ENDCHAR
STARTCHAR :
ENCODING 58
SWIDTH 500 0
DWIDTH 7 0
BBX 7 17 0 -3
BITMAP
00
00
00
00
00
00
00
18
18
00
00
00
18
18
00
00
00
ENDCHAR
STARTCHAR ;
ENCODING 59
SWIDTH 500 0
DWIDTH 7 0
BBX 7 17 0 -3
BITMAP
00
00
00
00
00
00
00
18
18
00
00
00
18
08
08
10
00
ENDCHAR
STARTCHAR <
ENCODING 60
SWIDTH 500 0
DWIDTH 7 0
BBX 7 17 0 -3
BITMAP
00
00
00
00
00
00
00
04
08
10
20
10
08
04
00
00
00
ENDCHAR
STARTCHAR =
ENCODING 61
SWIDTH 500 0
DWIDTH 7 0
BBX 7 17 0 -3
BITMAP
00
00
00
00
00
00
00
00
7c
00
00
7c
00
00
00
00
00
ENDCHAR
STARTCHAR >
ENCODING 62
SWIDTH 500 0
DWIDTH 7 0
BBX 7 17 0 -3
BITMAP
00
00
00
00
00
00
00
20
10
08
04
08
10
20
00
00
00
ENDCHAR
STARTCHAR ?
ENCODING 63
SWIDTH 500 0
DWIDTH 7 0
BBX 7 17 0 -3
BITMAP
00
00
00
00
00
3c
42
42
04
08
08
00
08
08
00
00
00
ENDCHAR
STARTCHAR @
ENCODING 64
SWIDTH 500 0
DWIDTH 7 0
BBX 7 17 0 -3
BITMAP
00
00
00
00
00
1c
22
4e
52
52
52
4e
20
1e
00
00
00
ENDCHAR
STARTCHAR A
ENCODING 65
SWIDTH 500 0
DWIDTH 7 0
BBX 7 17 0 -3
BITMAP
00
00
00
00
00
18
24
42
42
7e
42
42
42
42
00
00
00
ENDCHAR
STARTCHAR B
ENCODING 66
SWIDTH 500 0
DWIDTH 7 0
BBX 7 17 0 -3
BITMAP
00
00
00
00
00
7c
22
22
22
3c
22
22
22
7c
00
00
00
ENDCHAR
STARTCHAR C
ENCODING 67
SWIDTH 500 0
DWIDTH 7 0
BBX 7 17 0 -3
BITMAP
00
00
00
00
00
3c
42
42
40
40
40
42
42
3c
00
00
00
ENDCHAR
STARTCHAR D
ENCODING 68
SWIDTH 500 0
DWIDTH 7 0
BBX 7 17 0 -3
BITMAP
00
00
00
00
00
7c
22
22
22
22
22
22
22
7c
00
00
00
ENDCHAR
STARTCHAR E
ENCODING 69
SWIDTH 500 0
DWIDTH 7 0
BBX 7 17 0 -3
BITMAP
00
00
00
00
00
7e
40
40
40
7c
40
40
40
7e
00
00
00
ENDCHAR
STARTCHAR F
ENCODING 70
SWIDTH 500 0
DWIDTH 7 0
BBX 7 17 0 -3
BITMAP
00
00
00
00
00
7e
40
40
40
7c
40
40
40
40
00
00
00
ENDCHAR
STARTCHAR G
ENCODING 71
SWIDTH 500 0
DWIDTH 7 0
BBX 7 17 0 -3
BITMAP
00
00
00
00
00
3c
42
40
40
4e
42
42
46
3a
00
00
00
ENDCHAR
STARTCHAR H
ENCODING 72
SWIDTH 500 0
DWIDTH 7 0
BBX 7 17 0 -3
BITMAP
00
00
00
00
00
42
42
42
42
7e
42
42
42
42
00
00
00
ENDCHAR
STARTCHAR I
ENCODING 73
SWIDTH 500 0
DWIDTH 7 0
BBX 7 17 0 -3
BITMAP
00
00
00
00
00
7c
10
10
10
10
10
10
10
7c
00
00
00
ENDCHAR
STARTCHAR J
ENCODING 74
SWIDTH 500 0
DWIDTH 7 0
BBX 7 17 0 -3
BITMAP
00
00
00
00
00
0e
04
04
04
04
04
44
44
38
00
00
00
ENDCHAR
STARTCHAR K
ENCODING 75
SWIDTH 500 0
DWIDTH 7 0
BBX 7 17 0 -3
BITMAP
00
00
00
00
00
42
44
48
50
60
50
48
44
42
00
00
00
ENDCHAR
STARTCHAR L
ENCODING 76
SWIDTH 500 0
DWIDTH 7 0
BBX 7 17 0 -3
BITMAP
00
00
00
00
00
40
40
40
40
40
40
40
40
7e
00
00
00
ENDCHAR
STARTCHAR M
ENCODING 77
SWIDTH 500 0
DWIDTH 7 0
BBX 7 17 0 -3
BITMAP
00
00
00
00
00
42
66
66
5a
5a
42
42
42
42
00
00
00
ENDCHAR
STARTCHAR N
ENCODING 78
SWIDTH 500 0
DWIDTH 7 0
BBX 7 17 0 -3
BITMAP
00
00
00
00
00
62
62
52
52
4a
4a
46
46
42
00
00
00
ENDCHAR
STARTCHAR O
ENCODING 79
SWIDTH 500 0
DWIDTH 7 0
BBX 7 17 0 -3
BITMAP
00
00
00
00
00
3c
42
42
42
42
42
42
42
3c
00
00
00
ENDCHAR
STARTCHAR P
ENCODING 80
SWIDTH 500 0
DWIDTH 7 0
BBX 7 17 0 -3
BITMAP
00
00
00
00
00
7c
42
42
42
7c
40
40
40
40
00
00
00
ENDCHAR
STARTCHAR Q
ENCODING 81
SWIDTH 500 0
DWIDTH 7 0
BBX 7 17 0 -3
BITMAP
00
00
00
00
00
3c
42
42
42
42
72
4a
46
3c
04
02
00
ENDCHAR
STARTCHAR R
ENCODING 82
SWIDTH 500 0
DWIDTH 7 0
BBX 7 17 0 -3
BITMAP
00
00
00
00
00
7c
42
42
42
7c
48
44
42
42
00
00
00
ENDCHAR
STARTCHAR S
ENCODING 83
SWIDTH 500 0
DWIDTH 7 0
BBX 7 17 0 -3
BITMAP
00
00
00
00
00
3c
42
40
30
0c
02
42
42
3c
00
00
00
ENDCHAR
STARTCHAR T
ENCODING 84
SWIDTH 500 0
DWIDTH 7 0
BBX 7 17 0 -3
BITMAP
00
00
00
00
00
fe
10
10
10
10
10
10
10
10
00
00
00
ENDCHAR
STARTCHAR U
ENCODING 85
SWIDTH 500 0
DWIDTH 7 0
BBX 7 17 0 -3
BITMAP
00
00
00
00
00
42
42
42
42
42
42
42
42
3c
00
00
00
ENDCHAR
STARTCHAR V
ENCODING 86
SWIDTH 500 0
DWIDTH 7 0
BBX 7 17 0 -3
BITMAP
00
00
00
00
00
42
42
42
24
24
24
18
18
18
00
00
00
ENDCHAR
STARTCHAR W
ENCODING 87
SWIDTH 500 0
DWIDTH 7 0
BBX 7 17 0 -3
BITMAP
00
00
00
00
00
42
42
42
42
5a
5a
66
66
42
00
00
00
ENDCHAR
STARTCHAR X
ENCODING 88
SWIDTH 500 0
DWIDTH 7 0
BBX 7 17 0 -3
BITMAP
00
00
00
00
00
42
42
24
24
18
24
24
42
42
00
00
00
ENDCHAR
STARTCHAR Y
ENCODING 89
SWIDTH 500 0
DWIDTH 7 0
BBX 7 17 0 -3
BITMAP
00
00
00
00
00
44
44
44
44
28
10
10
10
10
00
00
00
ENDCHAR
STARTCHAR Z
ENCODING 90
SWIDTH 500 0
DWIDTH 7 0
BBX 7 17 0 -3
BITMAP
00
00
00
00
00
7e
02
04
08
10
20
40
40
7e
00
00
00
ENDCHAR
STARTCHAR [
ENCODING 91
SWIDTH 500 0
DWIDTH 7 0
BBX 7 17 0 -3
BITMAP
00
00
00
00
1c
10
10
10
10
10
10
10
10
10
1c
00
00
ENDCHAR
STARTCHAR \
ENCODING 92
SWIDTH 500 0
DWIDTH 7 0
BBX 7 17 0 -3
BITMAP
00
00
00
00
00
40
40
20
20
10
08
08
04
04
00
00
00
ENDCHAR
STARTCHAR ]
ENCODING 93
SWIDTH 500 0
DWIDTH 7 0
BBX 7 17 0 -3
BITMAP
00
00
00
00
70
10
10
10
10
10
10
10
10
10
70
00
00
ENDCHAR
STARTCHAR ^
ENCODING 94
SWIDTH 500 0
DWIDTH 7 0
BBX 7 17 0 -3
BITMAP
00
00
00
18
24
42
00
00
00
00
00
00
00
00
00
00
00
ENDCHAR
STARTCHAR _
ENCODING 95
SWIDTH 500 0
DWIDTH 7 0
BBX 7 17 0 -3
BITMAP
00
00
00
00
00
00
00
00
00
00
00
00
00
00
fe
00
00
ENDCHAR
STARTCHAR `
ENCODING 96
SWIDTH 500 0
DWIDTH 7 0
BBX 7 17 0 -3
BITMAP
00
00
00
00
18
10
10
08
00
00
00
00
00
00
00
00
00
ENDCHAR
STARTCHAR a
ENCODING 97
SWIDTH 500 0
DWIDTH 7 0
BBX 7 17 0 -3
BITMAP
00
00
00
00
00
00
00
3c
42
0e
32
42
46
3a
00
00
00
ENDCHAR
STARTCHAR b
ENCODING 98
SWIDTH 500 0
DWIDTH 7 0
BBX 7 17 0 -3
BITMAP
00
00
00
00
00
40
40
5c
62
42
42
42
62
5c
00
00
00
ENDCHAR
STARTCHAR c
ENCODING 99
SWIDTH 500 0
DWIDTH 7 0
BBX 7 17 0 -3
BITMAP
00
00
00
00
00
00
00
3c
42
40
40
40
42
3c
00
00
00
ENDCHAR
STARTCHAR d
ENCODING 100
SWIDTH 500 0
DWIDTH 7 0
BBX 7 17 0 -3
BITMAP
00
00
00
00
00
02
02
3a
46
42
42
42
46
3a
00
00
00
ENDCHAR
STARTCHAR e
ENCODING 101
SWIDTH 500 0
DWIDTH 7 0
BBX 7 17 0 -3
BITMAP
00
00
00
00
00
00
00
3c
42
42
7e
40
42
3c
00
00
00
ENDCHAR
STARTCHAR f
ENCODING 102
SWIDTH 500 0
DWIDTH 7 0
BBX 7 17 0 -3
BITMAP
00
00
00
00
00
0c
10
10
7c
10
10
10
10
10
00
00
00
ENDCHAR
STARTCHAR g
ENCODING 103
SWIDTH 500 0
DWIDTH 7 0
BBX 7 17 0 -3
BITMAP
00
00
00
00
00
00
00
3a
44
44
44
38
20
5c
42
3c
00
ENDCHAR
STARTCHAR h
ENCODING 104
SWIDTH 500 0
DWIDTH 7 0
BBX 7 17 0 -3
BITMAP
00
00
00
00
00
40
40
5c
62
42
42
42
42
42
00
00
00
ENDCHAR
STARTCHAR i
ENCODING 105
SWIDTH 500 0
DWIDTH 7 0
BBX 7 17 0 -3
BITMAP
00
00
00
00
10
10
00
30
10
10
10
10
10
7c
00
00
00
ENDCHAR
STARTCHAR j
ENCODING 106
SWIDTH 500 0
DWIDTH 7 0
BBX 7 17 0 -3
BITMAP
00
00
00
00
04
04
00
0c
04
04
04
04
04
44
44
38
00
ENDCHAR
STARTCHAR k
ENCODING 107
SWIDTH 500 0
DWIDTH 7 0
BBX 7 17 0 -3
BITMAP
00
00
00
00
00
40
40
44
48
50
60
50
48
44
00
00
00
ENDCHAR
STARTCHAR l
ENCODING 108
SWIDTH 500 0
DWIDTH 7 0
BBX 7 17 0 -3
BITMAP
00
00
00
00
00
30
10
10
10
10
10
10
10
7c
00
00
00
ENDCHAR
STARTCHAR m
ENCODING 109
SWIDTH 500 0
DWIDTH 7 0
BBX 7 17 0 -3
BITMAP
00
00
00
00
00
00
00
68
54
54
54
54
54
44
00
00
00
ENDCHAR
STARTCHAR n
ENCODING 110
SWIDTH 500 0
DWIDTH 7 0
BBX 7 17 0 -3
BITMAP
00
00
00
00
00
00
00
5c
62
42
42
42
42
42
00
00
00
ENDCHAR
STARTCHAR o
ENCODING 111
SWIDTH 500 0
DWIDTH 7 0
BBX 7 17 0 -3
BITMAP
00
00
00
00
00
00
00
3c
42
42
42
42
42
3c
00
00
00
ENDCHAR
STARTCHAR p
ENCODING 112
SWIDTH 500 0
DWIDTH 7 0
BBX 7 17 0 -3
BITMAP
00
00
00
00
00
00
00
5c
62
42
42
42
62
5c
40
40
00
ENDCHAR
STARTCHAR q
ENCODING 113
SWIDTH 500 0
DWIDTH 7 0
BBX 7 17 0 -3
BITMAP
00
00
00
00
00
00
00
3a
46
42
42
42
46
3a
02
02
00
ENDCHAR
STARTCHAR r
ENCODING 114
SWIDTH 500 0
DWIDTH 7 0
BBX 7 17 0 -3
BITMAP
00
00
00
00
00
00
00
5c
62
42
40
40
40
40
00
00
00
ENDCHAR
STARTCHAR s
ENCODING 115
SWIDTH 500 0
DWIDTH 7 0
BBX 7 17 0 -3
BITMAP
00
00
00
00
00
00
00
3c
42
40
3c
02
42
3c
00
00
00
ENDCHAR
STARTCHAR t
ENCODING 116
SWIDTH 500 0
DWIDTH 7 0
BBX 7 17 0 -3
BITMAP
00
00
00
00
00
10
10
7c
10
10
10
10
12
0c
00
00
00
ENDCHAR
STARTCHAR u
ENCODING 117
SWIDTH 500 0
DWIDTH 7 0
BBX 7 17 0 -3
BITMAP
00
00
00
00
00
00
00
42
42
42
42
42
46
3a
00
00
00
ENDCHAR
STARTCHAR v
ENCODING 118
SWIDTH 500 0
DWIDTH 7 0
BBX 7 17 0 -3
BITMAP
00
00
00
00
00
00
00
44
44
44
28
28
10
10
00
00
00
ENDCHAR
STARTCHAR w
ENCODING 119
SWIDTH 500 0
DWIDTH 7 0
BBX 7 17 0 -3
BITMAP
00
00
00
00
00
00
00
44
54
54
54
54
54
28
00
00
00
ENDCHAR
STARTCHAR x
ENCODING 120
SWIDTH 500 0
DWIDTH 7 0
BBX 7 17 0 -3
BITMAP
00
00
00
00
00
00
00
44
44
28
10
28
44
44
00
00
00
ENDCHAR
STARTCHAR y
ENCODING 121
SWIDTH 500 0
DWIDTH 7 0
BBX 7 17 0 -3
BITMAP
00
00
00
00
00
00
00
42
42
42
42
46
3a
02
02
3c
00
ENDCHAR
STARTCHAR z
ENCODING 122
SWIDTH 500 0
DWIDTH 7 0
BBX 7 17 0 -3
BITMAP
00
00
00
00
00
00
00
7e
04
08
10
20
40
7e
00
00
00
ENDCHAR
STARTCHAR {
ENCODING 123
SWIDTH 500 0
DWIDTH 7 0
BBX 7 17 0 -3
BITMAP
00
00
00
00
0c
10
10
08
08
10
08
08
10
10
0c
00
00
ENDCHAR
STARTCHAR |
ENCODING 124
SWIDTH 500 0
DWIDTH 7 0
BBX 7 17 0 -3
BITMAP
00
00
00
10
10
10
10
10
10
10
10
10
10
10
10
10
00
ENDCHAR
STARTCHAR }
ENCODING 125
SWIDTH 500 0
DWIDTH 7 0
BBX 7 17 0 -3
BITMAP
00
00
00
00
60
10
10
20
20
10
20
20
10
10
60
00
00
ENDCHAR
STARTCHAR ~
ENCODING 126
SWIDTH 500 0
DWIDTH 7 0
BBX 7 17 0 -3
BITMAP
00
00
00
00
00
32
4c
00
00
00
00
00
00
00
00
00
00
ENDCHAR
STARTCHAR LAO LETTER KO_KAI' (CHICKEN)
ENCODING 161
SWIDTH 500 0
DWIDTH 7 0
BBX 7 17 0 -3
BITMAP
00
00
00
00
00
00
00
58
24
24
24
24
24
64
00
00
00
ENDCHAR
STARTCHAR LAO LETTER KHO_KHAI' (EGG)
ENCODING 162
SWIDTH 428 0
DWIDTH 7 0
BBX 7 17 0 -3
BITMAP
00
00
00
00
00
00
00
38
64
64
18
20
58
24
00
00
00
ENDCHAR
STARTCHAR LAO LETTER QHO_QHWARY (BAFFALO)
ENCODING 164
SWIDTH 357 0
DWIDTH 7 0
BBX 7 17 0 -3
BITMAP
00
00
00
00
00
00
00
38
44
64
64
44
64
64
00
00
00
ENDCHAR
STARTCHAR LAO LETTER NGO_NGUU (SNAKE)
ENCODING 167
SWIDTH 428 0
DWIDTH 7 0
BBX 7 17 0 -3
BITMAP
00
00
00
00
00
00
00
38
24
04
04
04
64
44
44
38
00
ENDCHAR
STARTCHAR LAO LETTER JO_JOW (NOVICE)
ENCODING 168
SWIDTH 428 0
DWIDTH 7 0
BBX 7 17 0 -3
BITMAP
00
00
00
00
00
00
00
38
44
04
34
3c
04
04
00
00
00
ENDCHAR
STARTCHAR LAO LETTER XO_XARNG" (ELEPHANT)
ENCODING 170
SWIDTH 428 0
DWIDTH 7 0
BBX 7 17 0 -3
BITMAP
00
00
00
00
00
00
00
38
64
64
18
20
58
24
04
04
00
ENDCHAR
STARTCHAR LAO LETTER YO_YUNG (MOSQUITO)
ENCODING 173
SWIDTH 357 0
DWIDTH 7 0
BBX 7 17 0 -3
BITMAP
00
00
00
00
00
00
00
64
64
44
64
64
44
38
00
00
00
ENDCHAR
STARTCHAR LAO LETTER DO_DEK (CHILD)
ENCODING 180
SWIDTH 428 0
DWIDTH 7 0
BBX 7 17 0 -3
BITMAP
00
00
00
00
00
00
00
38
44
44
44
44
74
74
00
00
00
ENDCHAR
STARTCHAR LAO LETTER TO_TAR (EYE)
ENCODING 181
SWIDTH 428 0
DWIDTH 7 0
BBX 7 17 0 -3
BITMAP
00
00
00
00
00
00
00
28
54
54
44
44
74
74
00
00
00
ENDCHAR
STARTCHAR LAO LETTER THO_THOW (OLD)
ENCODING 182
SWIDTH 428 0
DWIDTH 7 0
BBX 7 17 0 -3
BITMAP
00
00
00
00
00
00
00
58
24
24
24
24
34
34
04
04
00
ENDCHAR
STARTCHAR LAO LETTER DHO_DHUUNG (FLAG)
ENCODING 183
SWIDTH 500 0
DWIDTH 7 0
BBX 7 17 0 -3
BITMAP
00
00
00
00
00
00
00
c8
d4
54
54
54
54
24
00
00
00
ENDCHAR
STARTCHAR LAO LETTER NO_NOK (BIRD)
ENCODING 185
SWIDTH 428 0
DWIDTH 7 0
BBX 7 17 0 -3
BITMAP
00
00
00
00
00
00
00
64
64
24
24
24
34
48
00
00
00
ENDCHAR
STARTCHAR LAO LETTER BO_BED (FISHHOOK)
ENCODING 186
SWIDTH 500 0
DWIDTH 7 0
BBX 7 17 0 -3
BITMAP
00
00
00
00
00
00
00
64
64
24
24
24
24
18
00
00
00
ENDCHAR
STARTCHAR LAO LETTER PO_PAR (FISH)
ENCODING 187
SWIDTH 500 0
DWIDTH 7 0
BBX 7 17 0 -3
BITMAP
00
00
00
00
00
04
04
64
64
24
24
24
24
18
00
00
00
ENDCHAR
STARTCHAR LAO LETTER HPO_HPIRNG" (BEE)
ENCODING 188
SWIDTH 500 0
DWIDTH 7 0
BBX 7 17 0 -3
BITMAP
00
00
00
00
00
00
00
6c
6e
44
54
54
54
28
00
00
00
ENDCHAR
STARTCHAR LAO LETTER FHO_FHAR (WALL)
ENCODING 189
SWIDTH 500 0
DWIDTH 7 0
BBX 7 17 0 -3
BITMAP
00
00
00
00
00
04
04
64
64
44
54
54
54
28
00
00
00
ENDCHAR
STARTCHAR LAO LETTER PHO_PHUU (MOUNTAIN)
ENCODING 190
SWIDTH 500 0
DWIDTH 7 0
BBX 7 17 0 -3
BITMAP
00
00
00
00
00
00
00
64
64
24
54
54
54
28
00
00
00
ENDCHAR
STARTCHAR LAO LETTER FO_FAI (FIRE)
ENCODING 191
SWIDTH 500 0
DWIDTH 7 0
BBX 7 17 0 -3
BITMAP
00
00
00
00
00
04
04
64
64
24
54
54
54
28
00
00
00
ENDCHAR
STARTCHAR LAO LETTER MO_MAR" (HORSE)
ENCODING 193
SWIDTH 428 0
DWIDTH 7 0
BBX 7 17 0 -3
BITMAP
00
00
00
00
00
00
00
44
24
24
24
24
74
68
00
00
00
ENDCHAR
STARTCHAR LAO LETTER GNO_GNAR (MEDICINE)
ENCODING 194
SWIDTH 500 0
DWIDTH 7 0
BBX 7 17 0 -3
BITMAP
00
00
00
00
00
04
04
64
64
44
64
64
44
38
00
00
00
ENDCHAR
STARTCHAR LAO LETTER RO_ROD (CAR)
ENCODING 195
SWIDTH 428 0
DWIDTH 7 0
BBX 7 17 0 -3
BITMAP
00
00
00
00
00
00
00
38
44
60
18
64
64
38
00
00
00
ENDCHAR
STARTCHAR LAO LETTER LO_LIING (MONKEY)
ENCODING 197
SWIDTH 500 0
DWIDTH 7 0
BBX 7 17 0 -3
BITMAP
00
00
00
00
00
00
00
38
44
04
24
54
6c
6c
00
00
00
ENDCHAR
STARTCHAR LAO LETTER WO_WII (HANDFAN)
ENCODING 199
SWIDTH 357 0
DWIDTH 7 0
BBX 7 17 0 -3
BITMAP
00
00
00
00
00
00
00
38
44
04
04
64
64
38
00
00
00
ENDCHAR
STARTCHAR LAO LETTER SO_SEA (TIGER)
ENCODING 202
SWIDTH 428 0
DWIDTH 7 0
BBX 7 17 0 -3
BITMAP
00
00
00
00
00
00
04
78
4c
74
24
54
6c
6c
00
00
00
ENDCHAR
STARTCHAR LAO LETTER HHO_HHAI (JAR)
ENCODING 203
SWIDTH 500 0
DWIDTH 7 0
BBX 7 17 0 -3
BITMAP
00
00
00
00
00
00
00
f8
d4
54
54
54
54
24
00
00
00
ENDCHAR
STARTCHAR LAO LETTER O_OW (TAKE)
ENCODING 205
SWIDTH 357 0
DWIDTH 7 0
BBX 7 17 0 -3
BITMAP
00
00
00
00
00
00
00
38
44
44
3c
64
64
38
00
00
00
ENDCHAR
STARTCHAR LAO LETTER HO_HEA (BOAT)
ENCODING 206
SWIDTH 428 0
DWIDTH 7 0
BBX 7 17 0 -3
BITMAP
00
00
00
00
00
00
00
34
48
60
18
64
64
38
00
00
00
ENDCHAR
STARTCHAR LAO ELLIPSIS
ENCODING 207
SWIDTH 428 0
DWIDTH 7 0
BBX 7 17 0 -3
BITMAP
00
00
00
00
00
00
00
6c
6c
54
2c
08
18
30
20
00
00
ENDCHAR
STARTCHAR LAO VOWEL SIGN A
ENCODING 208
SWIDTH 500 0
DWIDTH 7 0
BBX 7 17 0 -3
BITMAP
00
00
00
00
00
00
00
00
34
38
00
34
38
00
00
00
00
ENDCHAR
STARTCHAR LAO VOWEL SIGN MAI KAN
ENCODING 209
SWIDTH 500 0
DWIDTH 7 0
BBX 7 17 0 -3
BITMAP
00
00
00
00
64
78
00
00
00
00
00
00
00
00
00
00
00
ENDCHAR
STARTCHAR LAO VOWEL SIGN AR
ENCODING 210
SWIDTH 500 0
DWIDTH 7 0
BBX 7 17 0 -3
BITMAP
00
00
00
00
00
00
00
38
64
64
04
04
04
04
00
00
00
ENDCHAR
STARTCHAR LAO VOWEL SIGN AM
ENCODING 211
SWIDTH 500 0
DWIDTH 7 0
BBX 7 17 0 -3
BITMAP
00
00
00
00
00
c0
c0
1c
32
32
02
02
02
02
00
00
00
ENDCHAR
STARTCHAR LAO VOWEL SIGN I
ENCODING 212
SWIDTH 500 0
DWIDTH 7 0
BBX 7 17 0 -3
BITMAP
00
00
00
00
f8
88
00
00
00
00
00
00
00
00
00
00
00
ENDCHAR
STARTCHAR LAO VOWEL SIGN II
ENCODING 213
SWIDTH 500 0
DWIDTH 7 0
BBX 7 17 0 -3
BITMAP
00
00
00
00
f8
8c
00
00
00
00
00
00
00
00
00
00
00
ENDCHAR
STARTCHAR LAO VOWEL SIGN EU
ENCODING 214
SWIDTH 428 0
DWIDTH 7 0
BBX 7 17 0 -3
BITMAP
00
00
00
00
f8
a8
00
00
00
00
00
00
00
00
00
00
00
ENDCHAR
STARTCHAR LAO VOWEL SIGN UR
ENCODING 215
SWIDTH 500 0
DWIDTH 7 0
BBX 7 17 0 -3
BITMAP
00
00
00
00
f8
ac
00
00
00
00
00
00
00
00
00
00
00
ENDCHAR
STARTCHAR LAO VOWEL SIGN U
ENCODING 216
SWIDTH 500 0
DWIDTH 7 0
BBX 7 17 0 -3
BITMAP
00
00
00
00
00
00
00
00
00
00
00
00
00
00
00
18
08
ENDCHAR
STARTCHAR LAO VOWEL SIGN UU
ENCODING 217
SWIDTH 500 0
DWIDTH 7 0
BBX 7 17 0 -3
BITMAP
00
00
00
00
00
00
00
00
00
00
00
00
00
00
00
38
18
ENDCHAR
STARTCHAR LAO VOWEL SIGN MAI KON
ENCODING 219
SWIDTH 714 0
DWIDTH 7 0
BBX 7 17 0 -3
BITMAP
00
00
00
00
78
64
00
00
00
00
00
00
00
00
00
00
00
ENDCHAR
STARTCHAR LAO SEMIVOWEL SIGN LO HHORNG" KON"
ENCODING 220
SWIDTH 357 0
DWIDTH 7 0
BBX 7 17 0 -3
BITMAP
00
00
00
00
00
00
00
00
00
00
00
00
00
00
00
6c
58
ENDCHAR
STARTCHAR LAO SEMIVOWEL SIGN NYO
ENCODING 221
SWIDTH 428 0
DWIDTH 7 0
BBX 7 17 0 -3
BITMAP
00
00
00
00
00
00
00
34
28
18
04
04
64
44
44
38
00
ENDCHAR
STARTCHAR LAO VOWEL SARA EE
ENCODING 224
SWIDTH 500 0
DWIDTH 7 0
BBX 7 17 0 -3
BITMAP
00
00
00
00
00
00
00
10
10
10
10
10
18
18
00
00
00
ENDCHAR
STARTCHAR LAO VOWEL SARA AA
ENCODING 225
SWIDTH 500 0
DWIDTH 7 0
BBX 7 17 0 -3
BITMAP
00
00
00
00
00
00
00
48
48
48
48
48
6c
6c
00
00
00
ENDCHAR
STARTCHAR LAO VOWEL SARA OO
ENCODING 226
SWIDTH 428 0
DWIDTH 7 0
BBX 7 17 0 -3
BITMAP
00
00
00
00
60
90
48
20
10
10
10
10
18
18
00
00
00
ENDCHAR
STARTCHAR LAO VOWEL SARA AI MAI MUAN"
ENCODING 227
SWIDTH 500 0
DWIDTH 7 0
BBX 7 17 0 -3
BITMAP
00
00
00
00
30
48
58
38
08
08
08
08
0c
0c
00
00
00
ENDCHAR
STARTCHAR LAO VOWEL SARA AI MAI MARY
ENCODING 228
SWIDTH 500 0
DWIDTH 7 0
BBX 7 17 0 -3
BITMAP
00
00
00
00
48
58
28
08
08
08
08
08
0c
0c
00
00
00
ENDCHAR
STARTCHAR LAO KOLA REPETITION
ENCODING 230
SWIDTH 500 0
DWIDTH 7 0
BBX 7 17 0 -3
BITMAP
00
00
00
00
00
00
00
6c
54
74
04
04
04
04
44
38
00
ENDCHAR
STARTCHAR (null)
ENCODING 231
SWIDTH 0 0
DWIDTH 7 0
BBX 7 17 0 -3
BITMAP
00
00
00
00
00
00
00
00
00
00
00
00
00
00
00
00
00
ENDCHAR
STARTCHAR LAO TONE MAI EK
ENCODING 232
SWIDTH 71 0
DWIDTH 7 0
BBX 7 17 0 -3
BITMAP
08
08
08
00
00
00
00
00
00
00
00
00
00
00
00
00
00
ENDCHAR
STARTCHAR LAO TONE MAI THO
ENCODING 233
SWIDTH 357 0
DWIDTH 7 0
BBX 7 17 0 -3
BITMAP
30
12
3c
00
00
00
00
00
00
00
00
00
00
00
00
00
00
ENDCHAR
STARTCHAR LAO TONE MAI TI
ENCODING 234
SWIDTH 500 0
DWIDTH 7 0
BBX 7 17 0 -3
BITMAP
28
5a
6c
00
00
00
00
00
00
00
00
00
00
00
00
00
00
ENDCHAR
STARTCHAR LAO TONE MAI JADTAWAR
ENCODING 235
SWIDTH 214 0
DWIDTH 7 0
BBX 7 17 0 -3
BITMAP
08
1c
08
00
00
00
00
00
00
00
00
00
00
00
00
00
00
ENDCHAR
STARTCHAR LAO CANCELLATION MARK
ENCODING 236
SWIDTH 214 0
DWIDTH 7 0
BBX 7 17 0 -3
BITMAP
0c
38
30
00
00
00
00
00
00
00
00
00
00
00
00
00
00
ENDCHAR
STARTCHAR LAO NIGGAHITA FINAL NASAL
ENCODING 237
SWIDTH 142 0
DWIDTH 7 0
BBX 7 17 0 -3
BITMAP
00
00
00
18
18
00
00
00
00
00
00
00
00
00
00
00
00
ENDCHAR
STARTCHAR LAO DIGIT ZERO
ENCODING 240
SWIDTH 500 0
DWIDTH 7 0
BBX 7 17 0 -3
BITMAP
00
00
00
00
00
00
00
00
38
44
44
44
44
38
00
00
00
ENDCHAR
STARTCHAR LAO DIGIT ONE
ENCODING 241
SWIDTH 500 0
DWIDTH 7 0
BBX 7 17 0 -3
BITMAP
00
00
00
00
00
00
00
00
38
44
74
34
04
38
00
00
00
ENDCHAR
STARTCHAR LAO DIGIT TWO
ENCODING 242
SWIDTH 357 0
DWIDTH 7 0
BBX 7 17 0 -3
BITMAP
00
00
00
00
00
00
00
1c
20
40
58
5c
4c
38
00
00
00
ENDCHAR
STARTCHAR LAO DIGIT THREE
ENCODING 243
SWIDTH 500 0
DWIDTH 7 0
BBX 7 17 0 -3
BITMAP
00
00
00
00
00
18
14
08
44
24
24
24
74
68
00
00
00
ENDCHAR
STARTCHAR LAO DIGIT FOUR
ENCODING 244
SWIDTH 500 0
DWIDTH 7 0
BBX 7 17 0 -3
BITMAP
00
00
00
00
00
00
00
04
38
40
58
58
48
3c
00
00
00
ENDCHAR
STARTCHAR LAO DIGIT FIVE
ENCODING 245
SWIDTH 500 0
DWIDTH 7 0
BBX 7 17 0 -3
BITMAP
00
00
00
00
00
00
00
14
38
40
58
58
48
3c
00
00
00
ENDCHAR
STARTCHAR LAO DIGIT SIX
ENCODING 246
SWIDTH 500 0
DWIDTH 7 0
BBX 7 17 0 -3
BITMAP
00
00
00
00
00
18
14
08
64
64
44
54
54
28
00
00
00
ENDCHAR
STARTCHAR LAO DIGIT SEVEN
ENCODING 247
SWIDTH 500 0
DWIDTH 7 0
BBX 7 17 0 -3
BITMAP
00
00
00
00
00
00
00
58
24
24
24
24
64
64
04
04
00
ENDCHAR
STARTCHAR LAO DIGIT EIGHT
ENCODING 248
SWIDTH 500 0
DWIDTH 7 0
BBX 7 17 0 -3
BITMAP
00
00
00
00
00
00
00
68
94
c4
44
0c
14
28
5c
6c
00
ENDCHAR
STARTCHAR LAO DIGIT NINE
ENCODING 249
SWIDTH 571 0
DWIDTH 7 0
BBX 7 17 0 -3
BITMAP
00
00
00
00
00
00
00
64
94
94
94
94
d4
c8
00
00
00
ENDCHAR
STARTCHAR LAO LETTER NHO_NHUU (MOUSE,RAT)
ENCODING 251
SWIDTH 500 0
DWIDTH 7 0
BBX 7 17 0 -3
BITMAP
00
00
00
00
00
00
00
ba
d6
56
56
56
5e
2e
00
00
00
ENDCHAR
STARTCHAR LAO LETTER MHO_MHAR (DOG)
ENCODING 252
SWIDTH 500 0
DWIDTH 7 0
BBX 7 17 0 -3
BITMAP
00
00
00
00
00
00
00
9a
d6
56
56
56
5e
2e
00
00
00
ENDCHAR
ENDFONT
